<svg width="113" height="36" viewBox="0 0 113 36" fill="none" xmlns="http://www.w3.org/2000/svg">
<path fill-rule="evenodd" clip-rule="evenodd" d="M84.8059 17.7558C86.0434 17.7558 87.3656 18.5652 87.3656 20.8369V31.3699H92.9574V19.5002C92.9574 13.6142 88.7939 12.9785 87.0038 12.9785C84.5056 12.9785 82.7623 13.8329 81.1748 15.8348L81.0194 16.0306L80.905 15.8074C79.646 13.3462 77.1239 12.9785 75.7328 12.9785C73.73 12.9785 72.0712 13.8206 70.6616 15.5526L70.3751 15.9046V13.3434H64.7832V31.3699H70.3751V19.9058L70.393 19.8703C71.0877 18.5067 72.2032 17.7558 73.5347 17.7558C74.7721 17.7558 76.0942 18.5652 76.0942 20.8369V31.3699H81.6864V19.8643L81.7055 19.828C82.4185 18.4725 83.4906 17.7558 84.8059 17.7558Z" fill="#1F2430"/>
<path fill-rule="evenodd" clip-rule="evenodd" d="M106.473 26.4356L106.4 26.4842C105.473 27.0985 104.349 27.7265 103.035 27.7265C101.746 27.7265 100.914 27.0261 100.914 25.942C100.914 24.7229 101.956 24.3658 103.116 24.0807C103.806 23.9059 105.226 23.7396 106.296 23.6315L106.473 23.6132V26.4356ZM113 29.8941C112.03 28.9101 111.746 27.9265 111.746 26.6149V19.3374C111.746 15.3299 109.027 12.9375 104.473 12.9375C102.286 12.9375 100.25 13.3275 98.5769 14.0657L97.3563 19.2781C99.4614 18.2405 101.452 17.7554 103.594 17.7554C105.558 17.7554 106.473 18.5026 106.473 20.1073V20.8249L106.326 20.8378C104.309 21.0143 101.532 21.3322 99.7616 21.845C96.7742 22.6965 95.3223 24.3679 95.3223 26.9546C95.3223 29.6122 97.6883 31.7745 100.596 31.7745C102.83 31.7745 104.78 30.8764 106.556 29.0285L106.833 28.7397C106.833 28.7397 106.855 30.2215 108.795 31.8609L113 29.8941Z" fill="#1F2430"/>
<path fill-rule="evenodd" clip-rule="evenodd" d="M49.7012 26.1874L49.7353 25.9944C50.0652 24.1359 50.2827 22.2171 50.3829 20.2908L50.3908 20.1356H59.913V15.2598H50.3831L50.3746 15.1051C50.2704 13.2248 50.0521 11.3464 49.7258 9.52125L49.6915 9.32822H61.5994L60.6591 4.09375H42.3828C43.9542 8.18322 44.7837 12.9108 44.7837 17.7847C44.7837 22.6307 43.9628 27.3359 42.4081 31.41H61.019L61.9591 26.1874H49.7012Z" fill="#1F2430"/>
<path fill-rule="evenodd" clip-rule="evenodd" d="M18.1279 36C26.841 36 34.1643 30.0896 36.2585 22.0903C33.9017 26.1014 29.5216 28.62 24.5067 28.62C21.9886 28.62 20.2608 28.0606 18.2383 26.8762C25.9091 27.7522 32.3585 23.901 34.09 17.4856C36.2732 8.74298 28.9205 0 18.1292 0C8.10207 0 0 8.05888 0 17.9999C0 27.9411 8.11674 36 18.1292 36H18.1279Z" fill="#1F8844"/>
<path fill-rule="evenodd" clip-rule="evenodd" d="M18.1279 36C26.841 36 34.1643 30.0896 36.2585 22.0903C33.9017 26.1014 29.5216 28.62 24.5067 28.62C21.9886 28.62 20.2608 28.0606 18.2383 26.8762C25.9091 27.7522 32.3585 23.901 34.09 17.4856C36.2732 8.74298 28.9205 0 18.1292 0C8.10207 0 0 8.05888 0 17.9999C0 27.9411 8.11674 36 18.1292 36H18.1279Z" fill="#1F8844"/>
</svg>
