<svg width="507" height="507" viewBox="0 0 507 507" fill="none" xmlns="http://www.w3.org/2000/svg">
<g style="mix-blend-mode:darken">
<path fill-rule="evenodd" clip-rule="evenodd" d="M264.354 485.442C375.038 485.442 468.069 412.152 494.672 312.959C464.732 362.698 409.091 393.929 345.385 393.929C313.397 393.929 291.448 386.992 265.756 372.305C363.2 383.168 445.129 335.412 467.125 255.86C494.858 147.45 401.455 39.0352 264.37 39.0352C136.993 39.0352 34.0703 138.967 34.0703 262.238C34.0703 385.51 137.179 485.442 264.37 485.442H264.354Z" fill="#1F8844"/>
<path fill-rule="evenodd" clip-rule="evenodd" d="M264.354 485.442C375.038 485.442 468.069 412.152 494.672 312.959C464.732 362.698 409.091 393.929 345.385 393.929C313.397 393.929 291.448 386.992 265.756 372.305C363.2 383.168 445.129 335.412 467.125 255.86C494.858 147.45 401.455 39.0352 264.37 39.0352C136.993 39.0352 34.0703 138.967 34.0703 262.238C34.0703 385.51 137.179 485.442 264.37 485.442H264.354Z" stroke="#1F8844" stroke-width="0.709709"/>
</g>
<g opacity="0.2">
<path d="M148.019 395.486C138.336 395.486 130.634 392.782 125.315 387.348C112.249 374.013 115.068 345.253 133.043 308.439C168.127 236.598 250.458 153.241 316.564 122.63C346.746 108.654 369.777 107.494 381.408 119.368C394.474 132.703 391.654 161.463 373.68 198.277C338.595 270.119 256.264 353.475 190.158 384.086C173.779 391.674 159.502 395.48 148.012 395.48L148.019 395.486ZM317.192 123.982C251.349 154.472 169.338 237.514 134.382 309.099C116.696 345.311 113.78 373.455 126.379 386.316C137.542 397.71 159.97 396.441 189.543 382.747C255.386 352.257 337.397 269.215 372.353 197.63C390.039 161.418 392.955 133.274 380.357 120.413C369.2 109.019 346.766 110.288 317.192 123.982Z" fill="white"/>
<path d="M141.07 397.427C129.754 397.427 120.962 394.178 115.271 387.68C101.955 372.487 106.851 341.139 128.696 301.665C169.907 227.203 259.184 144.75 327.706 117.862C357.805 106.051 380.451 106.474 391.466 119.047C404.782 134.241 399.887 165.589 378.041 205.063C336.831 279.525 247.554 361.978 179.032 388.866C164.479 394.576 151.663 397.427 141.07 397.427ZM365.674 110.768C355.286 110.768 342.656 113.594 328.244 119.246C259.992 146.025 171.054 228.177 129.991 302.389C108.466 341.28 103.506 372.013 116.386 386.706C126.96 398.773 149.016 399.048 178.487 387.488C246.74 360.709 335.678 278.551 376.741 204.345C398.265 165.454 403.225 134.721 390.345 120.027C384.937 113.856 376.536 110.774 365.667 110.774L365.674 110.768Z" fill="white"/>
<path d="M134.698 398.901C121.369 398.901 111.257 394.973 105.175 387.187C91.6992 369.93 98.9019 335.929 124.938 293.911C172.48 217.187 268.601 136.368 339.212 113.748C369.035 104.193 391.175 106.25 401.55 119.534C415.026 136.791 407.829 170.792 381.787 212.81C334.245 289.534 238.124 370.353 167.513 392.974C155.159 396.934 144.124 398.895 134.698 398.895V398.901ZM372.053 109.3C362.793 109.3 351.9 111.249 339.667 115.164C269.344 137.695 173.588 218.232 126.2 294.699C100.51 336.16 93.2756 369.539 106.348 386.277C116.313 399.036 137.876 400.913 167.065 391.564C237.387 369.033 333.15 288.496 380.531 212.029C406.221 170.568 413.456 137.188 400.383 120.451C394.597 113.036 384.888 109.3 372.053 109.3Z" fill="white"/>
<path d="M128.733 400.031C113.066 400.031 101.64 395.25 95.1101 385.798C81.589 366.234 91.3421 329.554 121.877 285.166C175.922 206.596 278.721 128.187 351.043 110.379C380.834 103.041 401.782 106.688 411.625 120.92C425.146 140.484 415.393 177.164 384.858 221.552C330.812 300.122 228.014 378.531 155.692 396.333C145.683 398.8 136.667 400.024 128.74 400.024L128.733 400.031ZM378.008 108.174C370.203 108.174 361.308 109.385 351.395 111.827C279.381 129.558 176.967 207.698 123.101 286.011C92.9377 329.868 83.1782 365.927 96.334 384.959C105.792 398.64 126.196 402.081 155.34 394.904C227.354 377.173 329.768 299.033 383.634 220.719C413.797 176.862 423.557 140.804 410.401 121.772C404.159 112.743 393.15 108.174 378.008 108.174Z" fill="white"/>
<path d="M124.066 400.646C105.316 400.646 92.0193 394.821 85.1178 383.421C71.7185 361.294 84.2848 321.922 119.587 275.412C180.272 195.459 289.523 120.298 363.12 107.86C392.283 102.932 412.513 108.27 421.613 123.304C435.012 145.431 422.446 184.802 387.144 231.312C326.459 311.266 217.208 386.426 143.611 398.864C136.562 400.056 130.039 400.646 124.066 400.646ZM382.677 107.565C376.788 107.565 370.342 108.149 363.37 109.328C290.093 121.708 181.258 196.612 120.772 276.31C86.3674 321.64 73.5128 361.39 86.3866 382.652C95.1465 397.115 114.845 402.216 143.361 397.397C216.644 385.016 325.472 310.112 385.958 230.415C420.363 185.084 433.218 145.335 420.344 124.073C413.731 113.147 400.864 107.565 382.677 107.565Z" fill="white"/>
<path d="M120.717 400.937C98.0841 400.937 82.4676 393.773 75.2521 379.957C62.4039 355.35 78.4369 312.236 118.148 264.637C185.567 183.812 300.964 112.772 375.375 106.28C403.776 103.8 423.166 110.894 431.465 126.78C444.313 151.387 428.28 194.501 388.569 242.1C321.143 322.925 205.753 393.965 131.342 400.456C127.645 400.777 124.101 400.937 120.717 400.937ZM375.439 107.017L375.503 107.754C301.432 114.214 186.497 185.017 119.288 265.585C79.9748 312.711 64.0059 355.209 76.5721 379.271C84.5694 394.587 103.467 401.398 131.214 398.976C205.285 392.517 320.221 321.714 387.429 241.145C426.742 194.02 442.711 151.521 430.145 127.466C422.148 112.15 403.25 105.338 375.497 107.761L375.433 107.024L375.439 107.017Z" fill="white"/>
<path d="M119.03 401.014H118.992C91.482 401.007 73.0267 392.107 65.6126 375.272C53.4116 347.57 72.8665 301.791 117.659 252.827C191.858 171.707 312.984 105.723 387.69 105.723H387.728C415.238 105.729 433.693 114.63 441.107 131.464C453.308 159.166 433.847 204.945 389.061 253.91C314.862 335.03 193.736 401.014 119.03 401.014ZM387.696 107.203C313.349 107.203 192.723 172.969 118.761 253.826C74.3788 302.348 55.02 347.525 66.9775 374.677C74.1353 390.927 92.1228 399.521 118.998 399.527H119.037C193.383 399.527 314.016 333.761 387.971 252.904C432.354 204.382 451.713 159.205 439.755 132.053C432.597 115.803 414.61 107.209 387.734 107.203H387.696Z" fill="white"/>
<path d="M119.111 401.017C114.805 401.017 110.646 400.831 106.628 400.446C80.0983 397.915 62.6811 387.124 56.2602 369.233C45.0973 338.141 68.2562 289.824 118.194 239.988C199.199 159.156 325.656 99.183 400.086 106.277C426.616 108.808 444.033 119.599 450.454 137.491C461.61 168.583 438.458 216.9 388.52 266.735C311.885 343.203 194.566 401.01 119.111 401.017ZM387.558 107.193C312.481 107.193 195.643 164.821 119.252 241.045C69.7236 290.464 46.6994 338.198 57.6636 368.733C63.873 386.041 80.8545 396.493 106.775 398.966C180.808 406.028 306.74 346.24 387.475 265.684C437.003 216.265 460.027 168.531 449.063 137.997C442.854 120.689 425.872 110.237 399.952 107.763C395.966 107.385 391.826 107.2 387.558 107.2V107.193Z" fill="white"/>
<path d="M121.28 401.127C111.667 401.127 102.658 400.326 94.3656 398.667C68.8742 393.559 52.6105 380.763 47.3174 361.673C37.6925 326.922 64.8115 276.259 119.863 226.155C207.609 146.303 338.834 93.3277 412.367 108.073C437.858 113.18 454.122 125.977 459.415 145.067C469.04 179.818 441.921 230.48 386.869 280.585C309.011 351.439 196.927 401.127 121.28 401.134V401.127ZM385.37 107.079C310.113 107.079 198.478 156.62 120.869 227.25C66.2405 276.971 39.2817 327.069 48.7529 361.269C53.8793 379.782 69.7586 392.214 94.6604 397.206C102.882 398.853 111.84 399.647 121.376 399.647C196.632 399.647 308.268 350.106 385.876 279.476C440.505 229.756 467.47 179.657 457.993 145.458C452.866 126.945 436.987 114.513 412.085 109.521C403.863 107.874 394.905 107.079 385.37 107.079Z" fill="white"/>
<path d="M125.88 401.555C109.745 401.555 95.0251 399.62 82.2859 395.564C57.871 387.784 42.8633 372.841 38.8839 352.354C31.3864 313.72 62.7284 261 122.714 211.318C217.099 133.159 352.451 88.2254 424.439 111.166C448.854 118.946 463.862 133.889 467.841 154.376C475.339 193.01 443.997 245.73 384.011 295.412C306.332 359.736 200.9 401.555 125.88 401.562V401.555ZM380.743 106.636C306.114 106.636 201.098 148.34 123.663 212.465C64.0997 261.795 32.95 313.982 40.3385 352.072C44.2026 371.995 58.8643 386.548 82.728 394.154C154.294 416.954 289.017 372.149 383.056 294.271C442.619 244.942 473.769 192.754 466.374 154.664C462.51 134.742 447.848 120.189 423.984 112.589C411.348 108.565 396.737 106.642 380.736 106.642L380.743 106.636Z" fill="white"/>
<path d="M133.237 402.587C109.194 402.587 87.7524 398.883 70.5275 391.059C47.1957 380.466 33.5849 363.165 31.1626 341.037C26.5039 298.404 62.2803 244.006 126.861 195.529C227.705 119.83 366.479 84.0026 436.211 115.659C459.543 126.251 473.154 143.553 475.576 165.68C480.235 208.313 444.459 262.711 379.878 311.189C303.949 368.188 206.514 402.581 133.237 402.581V402.587ZM373.406 105.591C300.507 105.591 203.444 139.894 127.745 196.721C63.5875 244.884 28.0291 298.776 32.6365 340.884C34.9947 362.466 48.3107 379.351 71.1363 389.713C140.427 421.177 278.528 385.42 378.981 310.009C443.139 261.846 478.697 207.954 474.09 165.847C471.732 144.264 458.415 127.379 435.59 117.017C418.512 109.263 397.25 105.591 373.406 105.591Z" fill="white"/>
<path d="M143.471 404.548C110.033 404.548 80.7355 398.281 59.1915 385.08C36.949 371.444 24.9018 351.515 24.3635 327.446C23.319 280.833 63.69 225.275 132.353 178.829C239.425 106.405 380.813 80.7536 447.534 121.65C469.777 135.286 481.818 155.216 482.362 179.284C483.407 225.897 443.036 281.455 374.373 327.901C301.866 376.948 213.607 404.548 143.471 404.548ZM363.21 103.624C293.42 103.624 205.482 131.153 133.186 180.06C64.946 226.217 24.8185 281.301 25.8502 327.407C26.3757 350.951 38.173 370.45 59.9669 383.811C126.239 424.432 266.903 398.8 373.54 326.67C441.78 280.506 481.907 225.423 480.876 179.316C480.35 155.773 468.553 136.273 446.759 122.912C425.42 109.833 396.359 103.618 363.21 103.618V103.624Z" fill="white"/>
<path d="M156.43 407.775C112.214 407.775 73.8036 397.933 48.434 377.523C27.3001 360.522 17.06 337.6 18.8286 311.244C22.2057 260.876 67.2353 204.806 139.294 161.256C252.282 92.9652 395.393 78.5855 458.308 129.203C479.442 146.204 489.682 169.125 487.913 195.482C484.536 245.849 439.507 301.92 367.448 345.469C300.022 386.219 221.869 407.775 156.436 407.775H156.43ZM350.313 100.399C285.181 100.399 207.297 121.898 140.057 162.538C68.4144 205.831 23.6475 261.466 20.3089 311.346C18.5787 337.197 28.6202 359.683 49.3632 376.369C111.829 426.628 254.178 412.197 366.672 344.201C438.315 300.901 483.082 245.273 486.427 195.386C488.157 169.535 478.109 147.049 457.373 130.363C432.24 110.145 394.163 100.392 350.313 100.392V100.399Z" fill="white"/>
<path d="M171.536 412.622C115.388 412.622 66.7382 397.915 38.3632 368.323C18.402 347.503 10.2958 321.165 14.9224 292.15C23.4772 238.501 73.1207 182.699 147.724 142.892C266.254 79.6446 410.09 77.6325 468.359 138.407C488.32 159.227 496.426 185.564 491.8 214.58C483.245 268.228 433.601 324.03 358.998 363.837C298.186 396.287 230.702 412.622 171.536 412.622ZM335.243 95.5495C276.328 95.5495 209.068 111.839 148.422 144.206C74.2293 183.795 24.8742 239.187 16.3899 292.387C11.8401 320.922 19.8118 346.823 39.4334 367.297C97.2728 427.623 240.314 425.489 358.3 362.53C432.493 322.94 481.854 267.543 490.332 214.349C494.882 185.814 486.91 159.912 467.289 139.438C439.183 110.121 390.936 95.5559 335.243 95.5559V95.5495Z" fill="white"/>
<path d="M187.848 419.384C119.07 419.384 59.302 398.18 29.1456 357.412C10.498 332.202 4.96784 301.943 13.151 269.916C27.5051 213.723 81.5573 159.107 157.737 123.811C281.342 66.5421 424.826 77.9869 477.584 149.322C496.231 174.531 501.761 204.79 493.578 236.818C479.224 293.01 425.172 347.626 348.992 382.922C296.03 407.459 239.408 419.384 187.848 419.384ZM318.964 88.7974C267.603 88.7974 211.174 100.684 158.358 125.157C82.5826 160.267 28.838 214.518 14.5928 270.281C6.52501 301.86 11.9719 331.683 30.3439 356.527C82.7044 427.324 225.368 438.564 348.371 381.576C424.153 346.467 477.898 292.216 492.143 236.453C500.211 204.873 494.764 175.05 476.392 150.206C446.517 109.809 387.223 88.7974 318.971 88.7974H318.964Z" fill="white"/>
<path d="M204.151 428.295C122.557 428.295 51.2606 398.568 20.9247 344.727C3.84716 314.423 1.46976 279.724 14.0424 244.389C34.5803 186.659 92.6504 134.209 169.381 104.084C297.53 53.7744 439.482 79.7592 485.819 162.001C502.896 192.304 505.274 227.004 492.701 262.338C472.163 320.069 414.093 372.519 337.363 402.644C293.108 420.016 247.194 428.289 204.151 428.295ZM302.663 79.8937C259.786 79.8937 214.032 88.141 169.913 105.462C93.5796 135.433 35.8299 187.556 15.433 244.883C3.0077 279.8 5.35306 314.077 22.2127 343.997C68.2036 425.617 209.329 451.307 336.811 401.259C413.145 371.289 470.901 319.172 491.291 261.839C503.716 226.921 501.371 192.644 484.511 162.725C454.438 109.352 383.68 79.8937 302.656 79.8937H302.663Z" fill="white"/>
<path d="M232.233 452.97C125.961 452.97 32.8776 398.693 8.04624 313.869C-4.53925 270.878 1.63174 225.861 25.8992 183.702C59.2084 125.798 121.841 81.8646 197.719 63.1658C332.981 29.8245 468 88.0099 498.694 192.865C511.28 235.857 505.109 280.868 480.841 323.033C447.526 380.93 384.893 424.864 309.008 443.569C283.171 449.939 257.321 452.97 232.22 452.97H232.233ZM274.539 55.2454C249.541 55.2454 223.826 58.2572 198.078 64.6076C122.584 83.2167 60.2978 126.894 27.1808 184.439C3.12483 226.245 -3.0013 270.852 9.46883 313.453C34.1079 397.63 126.596 451.483 232.201 451.49C257.199 451.49 282.915 448.478 308.662 442.127C384.156 423.518 446.443 379.841 479.56 322.296C503.616 280.49 509.742 235.883 497.272 193.288C472.633 109.112 380.145 55.2518 274.539 55.2518V55.2454Z" fill="white"/>
<path d="M232.32 437.031C126.118 437.031 33.0954 387.021 8.28034 308.865C-4.29687 269.253 1.87006 227.774 26.1215 188.93C59.4089 135.578 122 95.0972 197.829 77.8683C333.002 47.1478 467.931 100.76 498.606 197.373C511.183 236.985 505.016 278.458 480.765 317.308C447.471 370.654 384.88 411.135 309.045 428.37C283.224 434.239 257.391 437.031 232.307 437.031H232.32ZM274.598 70.5705C249.617 70.5705 223.918 73.3455 198.187 79.1968C122.743 96.3431 60.4976 136.587 27.4023 189.609C3.36216 228.129 -2.75994 269.229 9.702 308.481C34.3249 386.041 126.752 435.661 232.288 435.667C257.27 435.667 282.968 432.892 308.699 427.041C384.143 409.895 446.389 369.651 479.484 316.629C503.524 278.109 509.646 237.009 497.184 197.762C472.562 120.203 380.134 70.5764 274.598 70.5764V70.5705Z" fill="white"/>
<path d="M242.424 468.732C124.605 468.732 22.5181 397.846 3.69756 295.612C-5.50445 245.641 6.5812 193.614 37.7309 149.103C76.5639 93.6029 140.997 54.6354 214.498 42.2037C352.163 18.9103 481.6 94.6923 503.035 211.121C512.237 261.091 500.151 313.118 469.008 357.623C430.169 413.129 365.735 452.091 292.235 464.529C275.458 467.367 258.784 468.732 242.431 468.732H242.424ZM264.314 39.4802C248.032 39.4802 231.454 40.8387 214.748 43.6647C141.632 56.0323 77.5572 94.7756 38.942 149.956C8.02943 194.139 -3.97292 245.769 5.1586 295.342C23.851 396.859 125.317 467.246 242.418 467.246C258.701 467.246 275.279 465.887 291.985 463.061C365.094 450.694 429.175 411.95 467.784 356.77C498.697 312.593 510.699 260.963 501.568 211.384C482.875 109.867 381.409 39.4802 264.308 39.4802H264.314Z" fill="white"/>
<path d="M249.513 486.696C120.601 486.709 11.5163 396.06 0.962212 275.453C-10.2391 147.375 93.8731 33.2725 233.044 21.0972C300.451 15.2017 365.941 33.8108 417.443 73.4897C468.971 113.188 500.332 169.227 505.759 231.282C511.187 293.332 490.028 353.965 446.183 402.013C402.352 450.042 341.091 479.737 273.684 485.632C265.571 486.344 257.491 486.69 249.513 486.69V486.696ZM257.478 21.5137C249.417 21.5137 241.31 21.8661 233.172 22.5774C94.8151 34.6823 -8.68837 148.061 2.44248 275.319C12.9261 395.144 121.383 485.203 249.513 485.209C257.459 485.209 265.469 484.863 273.556 484.158C340.591 478.295 401.506 448.767 445.088 401.013C488.65 353.28 509.675 293.05 504.286 231.417C498.89 169.784 467.734 114.117 416.54 74.6752C371.548 40.0074 315.811 21.5201 257.478 21.5201V21.5137Z" fill="white"/>
<path d="M253.363 506.732C113.66 506.732 0 393.072 0 253.363C0 113.654 113.66 0 253.363 0C393.066 0 506.726 113.66 506.726 253.363C506.726 393.066 393.066 506.726 253.363 506.726V506.732ZM253.363 1.48668C114.48 1.48668 1.48668 114.48 1.48668 253.363C1.48668 392.245 114.48 505.246 253.363 505.246C392.245 505.246 505.246 392.252 505.246 253.363C505.246 114.474 392.252 1.48668 253.363 1.48668Z" fill="white"/>
</g>
<path d="M163.643 212H158.267V181.298H169.985C176.957 181.298 181.031 184.826 181.031 190.874C181.031 194.99 179.099 197.93 175.487 199.4L181.325 212H175.445L170.237 200.534H163.643V212ZM163.643 186.086V195.788H169.985C173.387 195.788 175.403 193.982 175.403 190.874C175.403 187.808 173.387 186.086 169.985 186.086H163.643ZM192.613 212.546C186.439 212.546 182.113 208.052 182.113 201.626C182.113 195.116 186.355 190.622 192.445 190.622C198.661 190.622 202.609 194.78 202.609 201.248V202.802L186.985 202.844C187.363 206.498 189.295 208.346 192.697 208.346C195.511 208.346 197.359 207.254 197.947 205.28H202.693C201.811 209.816 198.031 212.546 192.613 212.546ZM192.487 194.822C189.463 194.822 187.615 196.46 187.111 199.568H197.527C197.527 196.712 195.553 194.822 192.487 194.822ZM208.432 187.094C206.668 187.094 205.282 185.708 205.282 183.986C205.282 182.264 206.668 180.92 208.432 180.92C210.112 180.92 211.498 182.264 211.498 183.986C211.498 185.708 210.112 187.094 208.432 187.094ZM205.87 212V191.252H210.994V212H205.87ZM220.572 212H215.448V191.252H220.152L220.572 193.688C221.622 191.966 223.722 190.622 226.704 190.622C229.854 190.622 232.038 192.176 233.13 194.57C234.18 192.176 236.616 190.622 239.766 190.622C244.806 190.622 247.578 193.646 247.578 198.434V212H242.496V199.778C242.496 196.796 240.9 195.242 238.464 195.242C235.986 195.242 234.096 196.838 234.096 200.24V212H228.972V199.736C228.972 196.838 227.418 195.284 224.982 195.284C222.546 195.284 220.572 196.88 220.572 200.24V212ZM257.942 212.546C253.532 212.546 250.844 209.984 250.844 206.078C250.844 202.256 253.616 199.862 258.53 199.484L264.746 199.022V198.56C264.746 195.746 263.066 194.612 260.462 194.612C257.438 194.612 255.758 195.872 255.758 198.056H251.39C251.39 193.562 255.086 190.622 260.714 190.622C266.3 190.622 269.744 193.646 269.744 199.4V212H265.25L264.872 208.934C263.99 211.076 261.176 212.546 257.942 212.546ZM259.622 208.682C262.772 208.682 264.788 206.792 264.788 203.6V202.508L260.462 202.844C257.27 203.138 256.052 204.188 256.052 205.868C256.052 207.758 257.312 208.682 259.622 208.682ZM272.762 201.164C272.762 195.116 276.71 190.58 282.632 190.58C285.74 190.58 288.176 191.882 289.394 194.108L289.688 191.252H294.434V210.95C294.434 217.88 290.276 222.206 283.556 222.206C277.592 222.206 273.518 218.804 272.888 213.26H278.012C278.348 215.948 280.406 217.544 283.556 217.544C287.084 217.544 289.352 215.318 289.352 211.874V208.43C288.05 210.362 285.488 211.58 282.506 211.58C276.626 211.58 272.762 207.17 272.762 201.164ZM277.928 201.038C277.928 204.524 280.154 207.128 283.514 207.128C287.042 207.128 289.226 204.65 289.226 201.038C289.226 197.51 287.084 195.074 283.514 195.074C280.112 195.074 277.928 197.636 277.928 201.038ZM301.459 187.094C299.695 187.094 298.309 185.708 298.309 183.986C298.309 182.264 299.695 180.92 301.459 180.92C303.139 180.92 304.525 182.264 304.525 183.986C304.525 185.708 303.139 187.094 301.459 187.094ZM298.897 212V191.252H304.021V212H298.897ZM313.599 212H308.475V191.252H313.221L313.641 193.94C314.943 191.84 317.463 190.622 320.277 190.622C325.485 190.622 328.173 193.856 328.173 199.232V212H323.049V200.45C323.049 196.964 321.327 195.284 318.681 195.284C315.531 195.284 313.599 197.468 313.599 200.828V212ZM341.649 212.546C335.475 212.546 331.149 208.052 331.149 201.626C331.149 195.116 335.391 190.622 341.481 190.622C347.697 190.622 351.645 194.78 351.645 201.248V202.802L336.021 202.844C336.399 206.498 338.331 208.346 341.733 208.346C344.547 208.346 346.395 207.254 346.983 205.28H351.729C350.847 209.816 347.067 212.546 341.649 212.546ZM341.523 194.822C338.499 194.822 336.651 196.46 336.147 199.568H346.563C346.563 196.712 344.589 194.822 341.523 194.822ZM171.868 269H166.744V252.536H162.754V248.252H166.744V241.784H171.868V248.252H175.9V252.536H171.868V269ZM183.369 269H178.245V237.752H183.411V250.94C184.713 248.924 187.149 247.622 190.131 247.622C195.255 247.622 197.943 250.856 197.943 256.232V269H192.819V257.45C192.819 253.964 191.097 252.284 188.493 252.284C185.259 252.284 183.369 254.552 183.369 257.66V269ZM211.42 269.546C205.246 269.546 200.92 265.052 200.92 258.626C200.92 252.116 205.162 247.622 211.252 247.622C217.468 247.622 221.416 251.78 221.416 258.248V259.802L205.792 259.844C206.17 263.498 208.102 265.346 211.504 265.346C214.318 265.346 216.166 264.254 216.754 262.28H221.5C220.618 266.816 216.838 269.546 211.42 269.546ZM211.294 251.822C208.27 251.822 206.422 253.46 205.918 256.568H216.334C216.334 253.712 214.36 251.822 211.294 251.822ZM233.099 248.252H236.081V245.732C236.081 240.104 239.063 237.752 243.557 237.752C244.355 237.752 245.321 237.794 246.203 237.962V242.33H244.397C241.793 242.33 241.163 243.674 241.163 245.732V248.252H246.119V252.536H241.163V269H236.081V252.536H233.099V248.252ZM262.619 248.252H267.743V269H262.997L262.619 266.228C261.359 268.202 258.671 269.546 255.899 269.546C251.111 269.546 248.297 266.312 248.297 261.23V248.252H253.421V259.424C253.421 263.372 254.975 264.968 257.831 264.968C261.065 264.968 262.619 263.078 262.619 259.13V248.252ZM279.252 269H274.128V252.536H270.138V248.252H274.128V241.784H279.252V248.252H283.284V252.536H279.252V269ZM299.699 248.252H304.823V269H300.077L299.699 266.228C298.439 268.202 295.751 269.546 292.979 269.546C288.191 269.546 285.377 266.312 285.377 261.23V248.252H290.501V259.424C290.501 263.372 292.055 264.968 294.911 264.968C298.145 264.968 299.699 263.078 299.699 259.13V248.252ZM322.295 248.168V252.914H320.405C316.709 252.914 314.399 254.888 314.399 258.92V269H309.275V248.294H314.105L314.399 251.318C315.281 249.26 317.255 247.874 320.027 247.874C320.741 247.874 321.455 247.958 322.295 248.168ZM333.508 269.546C327.334 269.546 323.008 265.052 323.008 258.626C323.008 252.116 327.25 247.622 333.34 247.622C339.556 247.622 343.504 251.78 343.504 258.248V259.802L327.88 259.844C328.258 263.498 330.19 265.346 333.592 265.346C336.406 265.346 338.254 264.254 338.842 262.28H343.588C342.706 266.816 338.926 269.546 333.508 269.546ZM333.382 251.822C330.358 251.822 328.51 253.46 328.006 256.568H338.422C338.422 253.712 336.448 251.822 333.382 251.822ZM201.402 315.584C201.402 309.116 206.064 304.664 212.49 304.664C218.916 304.664 223.578 309.116 223.578 315.584C223.578 322.052 218.916 326.504 212.49 326.504C206.064 326.504 201.402 322.052 201.402 315.584ZM206.526 315.584C206.526 319.364 208.962 321.926 212.49 321.926C216.018 321.926 218.454 319.364 218.454 315.584C218.454 311.804 216.018 309.242 212.49 309.242C208.962 309.242 206.526 311.804 206.526 315.584ZM224.659 305.252H227.641V302.732C227.641 297.104 230.623 294.752 235.117 294.752C235.915 294.752 236.881 294.794 237.763 294.962V299.33H235.957C233.353 299.33 232.723 300.674 232.723 302.732V305.252H237.679V309.536H232.723V326H227.641V309.536H224.659V305.252ZM264.324 326.504C255.378 326.504 249.582 320.288 249.582 310.67C249.582 301.136 255.588 294.794 264.576 294.794C271.842 294.794 277.26 299.036 278.31 305.63H272.64C271.59 302.06 268.524 299.96 264.45 299.96C258.78 299.96 255.21 304.076 255.21 310.628C255.21 317.138 258.822 321.338 264.45 321.338C268.608 321.338 271.8 319.154 272.808 315.752H278.394C277.218 322.22 271.59 326.504 264.324 326.504ZM289.693 310.67L279.487 295.298H285.871L289.609 300.8C290.869 302.69 291.919 304.454 293.053 306.554L300.193 295.298H306.451L296.413 310.628L306.493 326H300.151L296.707 320.918C295.363 318.86 294.271 317.012 293.053 314.786L285.577 326H279.277L289.693 310.67Z" fill="white"/>
</svg>
