<svg width="801" height="1223" viewBox="0 0 801 1223" fill="none" xmlns="http://www.w3.org/2000/svg">
<path d="M399.5 0L399.5 623.269C399.5 635.382 398.116 647.456 395.374 659.255L364.126 793.742C361.384 805.541 360 817.615 360 829.728L360 1015" stroke="#B1B1B1" stroke-opacity="0.5"/>
<path d="M410.508 374.536L410.508 609.769C410.508 621.882 411.892 633.956 414.633 645.755L445.882 780.242C448.624 792.041 450.008 804.114 450.008 816.228L450.008 1080.5" stroke="#B1B1B1" stroke-opacity="0.5"/>
<path d="M423.5 305.498L423.5 567.915C423.5 609.624 439.89 649.664 469.136 679.402L526.364 737.595C555.611 767.333 572 807.373 572 849.082L572 990.5" stroke="#B1B1B1" stroke-opacity="0.5"/>
<path d="M435.5 359.5L435.5 528.931C435.5 582.629 462.604 632.699 507.564 662.06L619.936 735.44C664.896 764.801 692 814.871 692 868.569L692 1137.5" stroke="#B1B1B1" stroke-opacity="0.5"/>
<path d="M447 430L447 493.177C447 552.121 479.608 606.228 531.725 633.763L715.275 730.737C767.392 758.272 800 812.379 800 871.323L800 1058.5" stroke="#B1B1B1" stroke-opacity="0.5"/>
<path d="M387 289.498L387 551.914C387 593.624 370.611 633.664 341.365 663.402L284.136 721.594C254.89 751.333 238.5 791.372 238.5 833.082L238.5 974.5" stroke="#B1B1B1" stroke-opacity="0.5"/>
<path d="M372 345L372 514.431C372 568.129 344.896 618.199 299.936 647.56L187.564 720.94C142.604 750.301 115.5 800.371 115.5 854.069L115.5 1223" stroke="#B1B1B1" stroke-opacity="0.5"/>
<path d="M353.5 435L353.5 498.177C353.5 557.121 320.892 611.228 268.775 638.763L85.2249 735.737C33.108 763.272 0.500022 817.379 0.500016 876.323L0.5 1063.5" stroke="#B1B1B1" stroke-opacity="0.5"/>
<rect x="482.592" y="828.96" width="28.2781" height="63.3179" rx="14.1391" transform="rotate(90 482.592 828.96)" fill="#D8E9DB"/>
<rect x="607.21" y="904" width="25.6047" height="56.7098" rx="12.8024" transform="rotate(90 607.21 904)" fill="#53AB72"/>
<rect x="396.075" y="960" width="28.9112" height="65.5746" rx="14.4556" transform="rotate(90 396.075 960)" fill="#D8E9DB"/>
<rect x="720.075" y="946" width="28.9112" height="65.5746" rx="14.4556" transform="rotate(90 720.075 946)" fill="#436888"/>
<rect x="149.992" y="857" width="26.6705" height="60.4924" rx="13.3353" transform="rotate(90 149.992 857)" fill="#436888"/>
<path d="M107.374 873.891L109.876 867.102H110.739L113.231 873.891H112.358L110.302 868.12L108.227 873.891H107.374ZM108.518 872.145L108.751 871.485H111.825L112.058 872.145H108.518ZM114.269 873.891V867.102H116.451C116.994 867.102 117.441 867.192 117.79 867.373C118.139 867.555 118.397 867.797 118.566 868.101C118.734 868.405 118.818 868.751 118.818 869.139C118.818 869.52 118.734 869.866 118.566 870.176C118.397 870.487 118.139 870.732 117.79 870.913C117.447 871.094 117.001 871.185 116.451 871.185H115.084V873.891H114.269ZM115.084 870.496H116.442C117.011 870.496 117.408 870.373 117.635 870.128C117.867 869.876 117.984 869.546 117.984 869.139C117.984 868.712 117.867 868.379 117.635 868.14C117.408 867.9 117.011 867.781 116.442 867.781H115.084V870.496ZM119.923 873.891V867.102H122.105C122.649 867.102 123.095 867.192 123.444 867.373C123.793 867.555 124.052 867.797 124.22 868.101C124.388 868.405 124.472 868.751 124.472 869.139C124.472 869.52 124.388 869.866 124.22 870.176C124.052 870.487 123.793 870.732 123.444 870.913C123.101 871.094 122.655 871.185 122.105 871.185H120.738V873.891H119.923ZM120.738 870.496H122.096C122.665 870.496 123.062 870.373 123.289 870.128C123.521 869.876 123.638 869.546 123.638 869.139C123.638 868.712 123.521 868.379 123.289 868.14C123.062 867.9 122.665 867.781 122.096 867.781H120.738V870.496ZM127.75 874.007C127.252 874.007 126.819 873.916 126.45 873.735C126.082 873.554 125.797 873.302 125.597 872.979C125.396 872.656 125.296 872.281 125.296 871.854H126.15C126.15 872.119 126.211 872.365 126.334 872.591C126.457 872.811 126.635 872.989 126.867 873.124C127.106 873.254 127.401 873.318 127.75 873.318C128.054 873.318 128.312 873.27 128.526 873.173C128.745 873.069 128.91 872.93 129.02 872.756C129.137 872.581 129.195 872.384 129.195 872.164C129.195 871.919 129.14 871.715 129.03 871.553C128.92 871.385 128.771 871.249 128.584 871.146C128.396 871.036 128.18 870.939 127.934 870.855C127.688 870.771 127.423 870.684 127.139 870.593C126.57 870.412 126.159 870.186 125.907 869.914C125.655 869.636 125.529 869.281 125.529 868.848C125.529 868.479 125.613 868.156 125.781 867.878C125.956 867.6 126.201 867.383 126.518 867.228C126.841 867.066 127.223 866.986 127.662 866.986C128.096 866.986 128.471 867.066 128.787 867.228C129.111 867.39 129.363 867.613 129.544 867.897C129.725 868.175 129.815 868.498 129.815 868.867H128.962C128.962 868.679 128.914 868.495 128.817 868.314C128.72 868.133 128.571 867.984 128.37 867.868C128.176 867.745 127.931 867.684 127.633 867.684C127.388 867.677 127.168 867.719 126.974 867.81C126.786 867.894 126.638 868.017 126.528 868.178C126.424 868.34 126.373 868.537 126.373 868.77C126.373 868.99 126.418 869.168 126.508 869.303C126.605 869.439 126.741 869.556 126.916 869.653C127.097 869.743 127.307 869.827 127.546 869.905C127.785 869.982 128.05 870.07 128.341 870.167C128.671 870.276 128.962 870.412 129.214 870.574C129.473 870.729 129.673 870.929 129.815 871.175C129.964 871.421 130.039 871.734 130.039 872.116C130.039 872.439 129.951 872.746 129.777 873.037C129.609 873.322 129.356 873.554 129.02 873.735C128.684 873.916 128.261 874.007 127.75 874.007Z" fill="white"/>
<path d="M439.816 846.768V839.979H441.59C442.379 839.979 443.032 840.118 443.549 840.396C444.067 840.667 444.448 841.059 444.694 841.569C444.946 842.074 445.072 842.681 445.072 843.393C445.072 844.091 444.946 844.692 444.694 845.196C444.448 845.701 444.067 846.089 443.549 846.36C443.032 846.632 442.379 846.768 441.59 846.768H439.816ZM440.63 846.089H441.571C442.224 846.089 442.744 845.982 443.132 845.769C443.527 845.549 443.808 845.238 443.976 844.838C444.144 844.43 444.228 843.949 444.228 843.393C444.228 842.824 444.144 842.336 443.976 841.928C443.808 841.521 443.527 841.207 443.132 840.987C442.744 840.768 442.224 840.658 441.571 840.658H440.63V846.089ZM449.174 846.884C448.547 846.884 447.994 846.738 447.516 846.447C447.044 846.15 446.675 845.74 446.41 845.216C446.145 844.686 446.013 844.071 446.013 843.373C446.013 842.681 446.145 842.074 446.41 841.55C446.675 841.02 447.044 840.606 447.516 840.309C447.994 840.011 448.547 839.863 449.174 839.863C449.814 839.863 450.37 840.011 450.842 840.309C451.321 840.606 451.689 841.02 451.948 841.55C452.206 842.074 452.336 842.681 452.336 843.373C452.336 844.071 452.206 844.686 451.948 845.216C451.689 845.74 451.321 846.15 450.842 846.447C450.37 846.738 449.814 846.884 449.174 846.884ZM449.174 846.166C449.646 846.166 450.057 846.056 450.406 845.837C450.755 845.61 451.023 845.29 451.211 844.876C451.405 844.456 451.502 843.955 451.502 843.373C451.502 842.791 451.405 842.293 451.211 841.88C451.023 841.459 450.755 841.139 450.406 840.92C450.057 840.7 449.646 840.59 449.174 840.59C448.709 840.59 448.301 840.7 447.952 840.92C447.603 841.139 447.332 841.459 447.138 841.88C446.944 842.293 446.847 842.791 446.847 843.373C446.847 843.955 446.944 844.456 447.138 844.876C447.332 845.29 447.603 845.61 447.952 845.837C448.301 846.056 448.709 846.166 449.174 846.166ZM456.428 846.884C455.788 846.884 455.232 846.738 454.76 846.447C454.288 846.15 453.923 845.74 453.664 845.216C453.412 844.686 453.286 844.071 453.286 843.373C453.286 842.675 453.412 842.064 453.664 841.54C453.923 841.01 454.288 840.6 454.76 840.309C455.232 840.011 455.788 839.863 456.428 839.863C457.198 839.863 457.822 840.047 458.3 840.415C458.779 840.784 459.086 841.304 459.221 841.977H458.339C458.229 841.556 458.016 841.22 457.699 840.968C457.388 840.709 456.965 840.58 456.428 840.58C455.963 840.58 455.556 840.693 455.206 840.92C454.857 841.139 454.589 841.459 454.401 841.88C454.214 842.293 454.12 842.791 454.12 843.373C454.12 843.955 454.214 844.456 454.401 844.876C454.589 845.29 454.857 845.61 455.206 845.837C455.556 846.056 455.963 846.166 456.428 846.166C456.965 846.166 457.388 846.043 457.699 845.798C458.016 845.546 458.229 845.213 458.339 844.799H459.221C459.086 845.452 458.779 845.963 458.3 846.331C457.822 846.7 457.198 846.884 456.428 846.884ZM462.227 846.884C461.775 846.884 461.397 846.816 461.093 846.68C460.795 846.538 460.566 846.344 460.404 846.098C460.249 845.846 460.155 845.555 460.123 845.226H460.957C460.983 845.4 461.041 845.562 461.132 845.71C461.229 845.853 461.368 845.969 461.549 846.06C461.73 846.15 461.959 846.195 462.237 846.195C462.457 846.195 462.644 846.163 462.8 846.098C462.955 846.027 463.071 845.93 463.149 845.807C463.226 845.685 463.265 845.546 463.265 845.39C463.265 845.177 463.217 845.012 463.12 844.896C463.029 844.779 462.893 844.692 462.712 844.634C462.538 844.569 462.318 844.521 462.053 844.488C461.781 844.45 461.536 844.395 461.316 844.324C461.102 844.252 460.918 844.159 460.763 844.042C460.608 843.926 460.488 843.784 460.404 843.616C460.327 843.441 460.288 843.234 460.288 842.995C460.288 842.717 460.362 842.471 460.511 842.258C460.66 842.045 460.87 841.88 461.141 841.763C461.419 841.64 461.743 841.579 462.111 841.579C462.661 841.579 463.094 841.705 463.411 841.957C463.734 842.209 463.925 842.568 463.983 843.034H463.178C463.145 842.795 463.036 842.607 462.848 842.471C462.661 842.336 462.412 842.268 462.101 842.268C461.778 842.268 461.532 842.329 461.364 842.452C461.196 842.575 461.112 842.736 461.112 842.937C461.112 843.085 461.151 843.218 461.229 843.334C461.306 843.451 461.435 843.548 461.616 843.625C461.797 843.703 462.033 843.764 462.324 843.81C462.699 843.855 463.019 843.929 463.284 844.033C463.55 844.13 463.753 844.282 463.895 844.488C464.038 844.689 464.106 844.967 464.099 845.323C464.099 845.652 464.022 845.933 463.866 846.166C463.711 846.399 463.491 846.577 463.207 846.7C462.929 846.822 462.602 846.884 462.227 846.884Z" fill="black"/>
<path d="M343.825 979.084V971.46H346.297C346.9 971.46 347.394 971.562 347.778 971.765C348.171 971.961 348.461 972.233 348.65 972.582C348.839 972.923 348.933 973.308 348.933 973.736C348.933 974.157 348.839 974.542 348.65 974.891C348.468 975.232 348.181 975.504 347.789 975.708C347.405 975.911 346.907 976.013 346.297 976.013H344.74V979.084H343.825ZM344.74 975.239H346.275C346.907 975.239 347.35 975.101 347.604 974.825C347.866 974.549 347.996 974.186 347.996 973.736C347.996 973.264 347.866 972.894 347.604 972.625C347.35 972.357 346.907 972.222 346.275 972.222H344.74V975.239ZM353.464 979.215C352.76 979.215 352.135 979.051 351.591 978.725C351.053 978.391 350.632 977.929 350.327 977.341C350.022 976.746 349.87 976.056 349.87 975.272C349.87 974.495 350.022 973.812 350.327 973.224C350.632 972.629 351.053 972.164 351.591 971.83C352.135 971.496 352.76 971.329 353.464 971.329C354.19 971.329 354.822 971.496 355.359 971.83C355.904 972.164 356.321 972.629 356.611 973.224C356.909 973.812 357.058 974.495 357.058 975.272C357.058 976.056 356.909 976.746 356.611 977.341C356.321 977.929 355.904 978.391 355.359 978.725C354.822 979.051 354.19 979.215 353.464 979.215ZM353.464 978.409C354.001 978.409 354.469 978.285 354.869 978.038C355.268 977.784 355.577 977.425 355.795 976.96C356.012 976.488 356.121 975.925 356.121 975.272C356.121 974.618 356.012 974.059 355.795 973.595C355.577 973.123 355.268 972.763 354.869 972.516C354.469 972.27 354.001 972.146 353.464 972.146C352.941 972.146 352.48 972.27 352.081 972.516C351.681 972.763 351.369 973.123 351.144 973.595C350.919 974.059 350.806 974.618 350.806 975.272C350.806 975.925 350.919 976.488 351.144 976.96C351.369 977.425 351.681 977.784 352.081 978.038C352.48 978.285 352.941 978.409 353.464 978.409ZM358.418 979.084V971.46H359.333V978.354H362.883V979.084H358.418ZM364.182 979.084V971.46H365.097V979.084H364.182ZM370.013 979.215C369.28 979.215 368.648 979.051 368.118 978.725C367.588 978.391 367.177 977.929 366.887 977.341C366.597 976.746 366.451 976.056 366.451 975.272C366.451 974.488 366.597 973.802 366.887 973.213C367.177 972.618 367.588 972.157 368.118 971.83C368.648 971.496 369.28 971.329 370.013 971.329C370.877 971.329 371.578 971.536 372.115 971.95C372.659 972.364 373.008 972.948 373.16 973.704H372.158C372.035 973.232 371.795 972.854 371.44 972.571C371.091 972.28 370.616 972.135 370.013 972.135C369.483 972.135 369.018 972.262 368.619 972.516C368.227 972.763 367.922 973.123 367.704 973.595C367.493 974.059 367.388 974.618 367.388 975.272C367.388 975.925 367.493 976.488 367.704 976.96C367.922 977.425 368.227 977.784 368.619 978.038C369.018 978.285 369.483 978.409 370.013 978.409C370.616 978.409 371.091 978.271 371.44 977.995C371.795 977.712 372.035 977.338 372.158 976.873H373.16C373.008 977.606 372.659 978.18 372.115 978.594C371.578 979.008 370.877 979.215 370.013 979.215ZM376.054 979.084V976.187L373.571 971.46H374.605L376.566 975.414H376.457L378.417 971.46H379.441L376.969 976.187V979.084H376.054Z" fill="black"/>
<path d="M559.136 921.185V914.396H561.328C561.858 914.396 562.291 914.486 562.627 914.667C562.963 914.842 563.212 915.078 563.374 915.375C563.535 915.673 563.616 916.009 563.616 916.384C563.616 916.746 563.532 917.079 563.364 917.383C563.202 917.687 562.95 917.929 562.608 918.11C562.265 918.291 561.825 918.382 561.289 918.382H559.95V921.185H559.136ZM562.724 921.185L561.231 918.149H562.142L563.684 921.185H562.724ZM559.95 917.742H561.269C561.787 917.742 562.165 917.616 562.404 917.363C562.65 917.111 562.773 916.788 562.773 916.394C562.773 915.993 562.653 915.676 562.414 915.443C562.181 915.204 561.796 915.084 561.26 915.084H559.95V917.742ZM564.922 921.185V914.396H569.122V915.065H565.737V917.431H568.831V918.091H565.737V920.515H569.122V921.185H564.922ZM570.434 921.185V914.396H572.616C573.159 914.396 573.606 914.486 573.955 914.667C574.304 914.848 574.562 915.091 574.731 915.395C574.899 915.699 574.983 916.045 574.983 916.432C574.983 916.814 574.899 917.16 574.731 917.47C574.562 917.78 574.304 918.026 573.955 918.207C573.612 918.388 573.166 918.479 572.616 918.479H571.249V921.185H570.434ZM571.249 917.79H572.607C573.176 917.79 573.573 917.667 573.8 917.422C574.032 917.17 574.149 916.84 574.149 916.432C574.149 916.006 574.032 915.673 573.8 915.434C573.573 915.194 573.176 915.075 572.607 915.075H571.249V917.79ZM578.978 921.301C578.351 921.301 577.798 921.155 577.32 920.864C576.848 920.567 576.48 920.157 576.214 919.633C575.949 919.103 575.817 918.488 575.817 917.79C575.817 917.098 575.949 916.491 576.214 915.967C576.48 915.437 576.848 915.023 577.32 914.726C577.798 914.428 578.351 914.28 578.978 914.28C579.618 914.28 580.174 914.428 580.646 914.726C581.125 915.023 581.493 915.437 581.752 915.967C582.011 916.491 582.14 917.098 582.14 917.79C582.14 918.488 582.011 919.103 581.752 919.633C581.493 920.157 581.125 920.567 580.646 920.864C580.174 921.155 579.618 921.301 578.978 921.301ZM578.978 920.583C579.45 920.583 579.861 920.473 580.21 920.253C580.559 920.027 580.827 919.707 581.015 919.293C581.209 918.873 581.306 918.372 581.306 917.79C581.306 917.208 581.209 916.71 581.015 916.297C580.827 915.876 580.559 915.556 580.21 915.337C579.861 915.117 579.45 915.007 578.978 915.007C578.513 915.007 578.106 915.117 577.756 915.337C577.407 915.556 577.136 915.876 576.942 916.297C576.748 916.71 576.651 917.208 576.651 917.79C576.651 918.372 576.748 918.873 576.942 919.293C577.136 919.707 577.407 920.027 577.756 920.253C578.106 920.473 578.513 920.583 578.978 920.583ZM583.362 921.185V914.396H585.554C586.084 914.396 586.517 914.486 586.853 914.667C587.189 914.842 587.438 915.078 587.6 915.375C587.762 915.673 587.842 916.009 587.842 916.384C587.842 916.746 587.758 917.079 587.59 917.383C587.429 917.687 587.176 917.929 586.834 918.11C586.491 918.291 586.052 918.382 585.515 918.382H584.177V921.185H583.362ZM586.95 921.185L585.457 918.149H586.368L587.91 921.185H586.95ZM584.177 917.742H585.495C586.013 917.742 586.391 917.616 586.63 917.363C586.876 917.111 586.999 916.788 586.999 916.394C586.999 915.993 586.879 915.676 586.64 915.443C586.407 915.204 586.022 915.084 585.486 915.084H584.177V917.742ZM590.729 921.185V915.065H588.702V914.396H593.571V915.065H591.544V921.185H590.729ZM596.634 921.301C596.136 921.301 595.703 921.21 595.334 921.029C594.966 920.848 594.681 920.596 594.481 920.273C594.281 919.95 594.18 919.575 594.18 919.148H595.034C595.034 919.413 595.095 919.659 595.218 919.885C595.341 920.105 595.519 920.283 595.751 920.418C595.991 920.548 596.285 920.612 596.634 920.612C596.938 920.612 597.196 920.564 597.41 920.467C597.63 920.363 597.795 920.224 597.904 920.05C598.021 919.875 598.079 919.678 598.079 919.458C598.079 919.213 598.024 919.009 597.914 918.847C597.804 918.679 597.656 918.543 597.468 918.44C597.281 918.33 597.064 918.233 596.818 918.149C596.573 918.065 596.307 917.978 596.023 917.887C595.454 917.706 595.044 917.48 594.791 917.208C594.539 916.93 594.413 916.575 594.413 916.142C594.413 915.773 594.497 915.45 594.665 915.172C594.84 914.894 595.086 914.677 595.402 914.522C595.726 914.36 596.107 914.28 596.547 914.28C596.98 914.28 597.355 914.36 597.672 914.522C597.995 914.684 598.247 914.907 598.428 915.191C598.609 915.469 598.7 915.792 598.7 916.161H597.846C597.846 915.973 597.798 915.789 597.701 915.608C597.604 915.427 597.455 915.278 597.255 915.162C597.061 915.039 596.815 914.978 596.518 914.978C596.272 914.971 596.052 915.013 595.858 915.104C595.671 915.188 595.522 915.311 595.412 915.472C595.309 915.634 595.257 915.831 595.257 916.064C595.257 916.284 595.302 916.462 595.393 916.597C595.49 916.733 595.625 916.849 595.8 916.946C595.981 917.037 596.191 917.121 596.43 917.199C596.67 917.276 596.935 917.363 597.226 917.46C597.555 917.57 597.846 917.706 598.098 917.868C598.357 918.023 598.557 918.223 598.7 918.469C598.848 918.715 598.923 919.028 598.923 919.41C598.923 919.733 598.835 920.04 598.661 920.331C598.493 920.616 598.241 920.848 597.904 921.029C597.568 921.21 597.145 921.301 596.634 921.301Z" fill="white"/>
</svg>
